# 3ds Max Wavefront OBJ Exporter v0.97b - (c)2007 guruware
# File Created: 24.10.2015 13:56:47

mtllib dead bush.mtl

#
# object Cylinder001
#

v  -30.1229 22.2243 -17.2735
v  -30.4991 22.2243 -18.4112
v  -31.6181 23.8848 -17.5191
v  -31.5061 23.8848 -17.1803
v  -31.4839 22.2243 -19.1143
v  -31.9113 23.8848 -17.7284
v  -32.7012 22.2243 -19.1143
v  -32.2738 23.8848 -17.7284
v  -33.6860 22.2243 -18.4112
v  -32.5670 23.8848 -17.5191
v  -34.0622 22.2243 -17.2735
v  -32.6790 23.8848 -17.1803
v  -33.6860 22.2243 -16.1359
v  -32.5670 23.8848 -16.8416
v  -32.7012 22.2243 -15.4328
v  -32.2738 23.8848 -16.6322
v  -31.4839 22.2243 -15.4328
v  -31.9113 23.8848 -16.6322
v  -30.4990 22.2243 -16.1359
v  -31.6181 23.8848 -16.8416
v  -31.5804 29.1130 -17.2890
v  -31.4595 29.1130 -16.9234
v  -31.8969 29.1130 -17.5150
v  -32.2881 29.1130 -17.5150
v  -32.6046 29.1130 -17.2890
v  -32.7255 29.1130 -16.9234
v  -32.6046 29.1130 -16.5578
v  -32.2881 29.1130 -16.3318
v  -31.8969 29.1130 -16.3318
v  -31.5804 29.1130 -16.5578
v  -31.9935 36.9961 -21.5665
v  -32.0547 36.9961 -21.6219
v  -32.1303 36.9961 -21.6219
v  -31.9935 36.9961 -21.3870
v  -32.1915 36.9961 -21.5665
v  -32.2149 36.9961 -21.4767
v  -32.1915 36.9961 -21.3870
v  -32.1303 36.9961 -21.3315
v  -32.0547 36.9961 -21.3315
v  -31.9702 36.9961 -21.4767
v  -31.8023 35.9899 -12.0817
v  -31.8634 36.0391 -12.1073
v  -31.9390 36.0391 -12.1073
v  -31.8023 35.8306 -11.9990
v  -32.0002 35.9899 -12.0817
v  -32.0236 35.9102 -12.0404
v  -32.0002 35.8306 -11.9990
v  -31.9390 35.7813 -11.9735
v  -31.8634 35.7813 -11.9735
v  -31.7789 35.9102 -12.0404
v  -31.5216 28.2365 -16.9384
v  -31.5941 28.4311 -17.0394
v  -31.7839 28.5513 -17.1019
v  -32.0185 28.5513 -17.1019
v  -32.2083 28.4311 -17.0394
v  -32.2808 28.2365 -16.9384
v  -32.2083 28.0419 -16.8373
v  -32.0185 27.9216 -16.7749
v  -31.7839 27.9216 -16.7749
v  -31.5941 28.0419 -16.8373
v  -31.8697 34.7302 -15.7336
v  -31.8892 34.7311 -15.7513
v  -31.9133 34.7311 -15.7513
v  -31.8697 34.7272 -15.6765
v  -31.9328 34.7302 -15.7336
v  -31.9402 34.7287 -15.7051
v  -31.9328 34.7272 -15.6765
v  -31.9133 34.7263 -15.6589
v  -31.8892 34.7263 -15.6589
v  -31.8622 34.7287 -15.7051
v  -31.7803 32.1458 -14.3845
v  -31.8034 32.1493 -14.4543
v  -31.8639 32.1516 -14.4974
v  -31.9386 32.1516 -14.4974
v  -31.9991 32.1493 -14.4543
v  -32.0222 32.1458 -14.3845
v  -31.9991 32.1422 -14.3147
v  -31.9386 32.1400 -14.2716
v  -31.8639 32.1400 -14.2716
v  -31.8034 32.1422 -14.3147
v  -33.6378 34.2854 -13.2018
v  -33.6621 34.2754 -13.2002
v  -33.6735 34.2580 -13.1881
v  -33.5891 34.2722 -13.1749
v  -33.6677 34.2399 -13.1700
v  -33.6468 34.2279 -13.1528
v  -33.6190 34.2267 -13.1431
v  -33.5947 34.2367 -13.1446
v  -33.5832 34.2541 -13.1568
v  -33.6099 34.2842 -13.1921
v  -31.7753 32.3694 -14.3709
v  -31.8457 32.3688 -14.3921
v  -31.9112 32.3351 -14.3819
v  -31.9466 32.2812 -14.3441
v  -31.9385 32.2275 -14.2933
v  -31.8899 32.1947 -14.2488
v  -31.8194 32.1953 -14.2277
v  -31.7540 32.2290 -14.2379
v  -31.7185 32.2829 -14.2756
v  -31.7267 32.3366 -14.3264
v  -38.1436 36.3509 -14.8434
v  -38.2148 36.3390 -14.8834
v  -38.2714 36.2888 -14.8834
v  -38.0611 36.2580 -14.7138
v  -38.2916 36.2195 -14.8434
v  -38.2679 36.1575 -14.7786
v  -38.2092 36.1266 -14.7138
v  -38.1380 36.1385 -14.6737
v  -38.0814 36.1887 -14.6737
v  -38.0849 36.3199 -14.7786
v  -32.0245 29.8765 -16.9457
v  -32.1794 29.9418 -17.1040
v  -32.3836 29.8860 -17.2018
v  -32.5591 29.7303 -17.2018
v  -32.6389 29.5342 -17.1040
v  -32.5924 29.3726 -16.9457
v  -32.4375 29.3073 -16.7874
v  -32.2333 29.3631 -16.6896
v  -32.0578 29.5188 -16.6896
v  -31.9781 29.7149 -16.7874
# 120 vertices

vn 0.5256 0.8507 -0.0048
vn 0.4110 0.8598 -0.3032
vn 0.6689 0.5583 -0.4908
vn 0.8504 0.5261 -0.0049
vn 0.1538 0.8649 -0.4778
vn 0.2509 0.5771 -0.7771
vn -0.1538 0.8649 -0.4778
vn -0.2509 0.5771 -0.7771
vn -0.4110 0.8598 -0.3032
vn -0.6689 0.5583 -0.4908
vn -0.5256 0.8507 -0.0048
vn -0.8504 0.5261 -0.0049
vn -0.4404 0.8408 0.3148
vn -0.7067 0.4920 0.5085
vn -0.1720 0.8341 0.5241
vn -0.2742 0.4700 0.8390
vn 0.1720 0.8341 0.5241
vn 0.2742 0.4700 0.8390
vn 0.4404 0.8408 0.3148
vn 0.7067 0.4920 0.5085
vn 0.8175 0.0385 -0.5747
vn 0.9996 -0.0191 0.0189
vn 0.3139 0.0747 -0.9465
vn -0.3139 0.0747 -0.9465
vn -0.8175 0.0385 -0.5747
vn -0.9996 -0.0191 0.0189
vn -0.7978 -0.0753 0.5982
vn -0.3018 -0.1091 0.9471
vn 0.3018 -0.1091 0.9471
vn 0.7978 -0.0753 0.5982
vn 0.0000 1.0000 -0.0000
vn 0.9324 -0.2152 -0.2903
vn 0.4730 -0.6223 -0.6238
vn 0.0000 -0.7173 -0.6967
vn -0.4730 -0.6223 -0.6238
vn -0.9324 -0.2152 -0.2903
vn -0.8680 0.4166 0.2702
vn -0.4221 0.7155 0.5567
vn 0.0000 0.7817 0.6237
vn 0.4221 0.7155 0.5567
vn 0.8680 0.4166 0.2702
vn -0.0000 0.7162 0.6979
vn 0.0000 0.7161 0.6980
vn -0.0000 0.7161 0.6980
vn 0.0000 0.7162 0.6979
vn -0.0001 0.7162 0.6979
vn 0.9000 0.3627 -0.2419
vn 0.4416 0.7186 -0.5372
vn 0.0000 0.7967 -0.6044
vn -0.4416 0.7186 -0.5372
vn -0.9000 0.3627 -0.2419
vn -0.9035 -0.3123 0.2934
vn -0.4442 -0.6859 0.5764
vn 0.0000 -0.7701 0.6379
vn 0.4442 -0.6859 0.5764
vn 0.9035 -0.3123 0.2934
vn 0.0001 0.9997 0.0259
vn 0.0000 0.9997 0.0261
vn -0.0000 0.9997 0.0259
vn 0.0000 0.9997 0.0259
vn -0.0002 0.9997 0.0258
vn 0.9277 -0.2361 -0.2893
vn 0.4810 -0.6019 -0.6375
vn 0.0000 -0.6928 -0.7212
vn -0.4810 -0.6019 -0.6375
vn -0.9277 -0.2361 -0.2893
vn -0.8970 0.3399 0.2826
vn -0.4555 0.6522 0.6059
vn 0.0000 0.7274 0.6862
vn 0.4555 0.6522 0.6059
vn 0.8970 0.3399 0.2826
vn -0.1515 0.8620 0.4838
vn -0.1512 0.8618 0.4843
vn -0.1515 0.8618 0.4841
vn -0.1519 0.8616 0.4844
vn -0.1516 0.8618 0.4841
vn -0.1515 0.8621 0.4835
vn -0.1513 0.8618 0.4842
vn -0.1514 0.8621 0.4836
vn 0.1549 0.8659 -0.4756
vn -0.2432 0.5430 -0.8037
vn -0.6338 -0.2174 -0.7423
vn -0.6183 -0.7394 -0.2665
vn -0.4326 -0.8887 0.1520
vn -0.1689 -0.8377 0.5194
vn 0.2341 -0.4869 0.8415
vn 0.6040 0.2672 0.7509
vn 0.5857 0.7593 0.2836
vn 0.4086 0.9049 -0.1196
vn -0.3579 0.7835 0.5079
vn -0.3579 0.7834 0.5080
vn -0.3579 0.7835 0.5080
vn -0.3580 0.7835 0.5080
vn -0.3580 0.7834 0.5080
vn -0.3580 0.7835 0.5079
vn -0.3577 0.7836 0.5079
vn 0.4152 0.8882 -0.1966
vn 0.2034 0.7792 -0.5928
vn -0.1652 0.3616 -0.9176
vn -0.5369 -0.3802 -0.7531
vn -0.5721 -0.7892 -0.2233
vn -0.4441 -0.8664 0.2285
vn -0.2245 -0.7466 0.6262
vn 0.1423 -0.3115 0.9395
vn 0.4964 0.4178 0.7609
vn 0.5331 0.8096 0.2457
# 106 vertex normals

vt 0.7500 0.0000 1.0000
vt 0.8500 0.0000 1.0000
vt 0.8500 0.5000 1.0000
vt 0.7500 0.5000 1.0000
vt 0.9500 0.0000 1.0000
vt 0.9500 0.5000 1.0000
vt 1.0500 0.0000 1.0000
vt 1.0500 0.5000 1.0000
vt 0.0500 0.0000 1.0000
vt 0.1500 0.0000 1.0000
vt 0.1500 0.5000 1.0000
vt 0.0500 0.5000 1.0000
vt 0.2500 0.0000 1.0000
vt 0.2500 0.5000 1.0000
vt 0.3500 0.0000 1.0000
vt 0.3500 0.5000 1.0000
vt 0.4500 0.0000 1.0000
vt 0.4500 0.5000 1.0000
vt 0.5500 0.0000 1.0000
vt 0.5500 0.5000 1.0000
vt 0.6500 0.0000 1.0000
vt 0.6500 0.5000 1.0000
vt 0.8500 1.0000 1.0000
vt 0.7500 1.0000 1.0000
vt 0.9500 1.0000 1.0000
vt 1.0500 1.0000 1.0000
vt 0.1500 1.0000 1.0000
vt 0.0500 1.0000 1.0000
vt 0.2500 1.0000 1.0000
vt 0.3500 1.0000 1.0000
vt 0.4500 1.0000 1.0000
vt 0.5500 1.0000 1.0000
vt 0.6500 1.0000 1.0000
vt 0.2061 0.9045 0.2500
vt 0.0245 0.6545 0.2500
vt 0.0245 0.3455 0.2500
vt 0.7939 0.9045 0.2500
vt 0.2061 0.0955 0.2500
vt 0.5000 0.0000 0.2500
vt 0.7939 0.0955 0.2500
vt 0.9755 0.3455 0.2500
vt 0.9755 0.6545 0.2500
vt 0.5000 1.0000 0.2500
# 43 texture coords

g Cylinder001
usemtl wire_028028177
s 8
f 1/1/1 2/2/2 3/3/3 4/4/4 
f 2/2/2 5/5/5 6/6/6 3/3/3 
f 5/5/5 7/7/7 8/8/8 6/6/6 
f 7/9/7 9/10/9 10/11/10 8/12/8 
f 9/10/9 11/13/11 12/14/12 10/11/10 
f 11/13/11 13/15/13 14/16/14 12/14/12 
f 13/15/13 15/17/15 16/18/16 14/16/14 
f 15/17/15 17/19/17 18/20/18 16/18/16 
f 17/19/17 19/21/19 20/22/20 18/20/18 
f 19/21/19 1/1/1 4/4/4 20/22/20 
f 4/4/4 3/3/3 21/23/21 22/24/22 
f 3/3/3 6/6/6 23/25/23 21/23/21 
f 6/6/6 8/8/8 24/26/24 23/25/23 
f 8/12/8 10/11/10 25/27/25 24/28/24 
f 10/11/10 12/14/12 26/29/26 25/27/25 
f 12/14/12 14/16/14 27/30/27 26/29/26 
f 14/16/14 16/18/16 28/31/28 27/30/27 
f 16/18/16 18/20/18 29/32/29 28/31/28 
f 18/20/18 20/22/20 30/33/30 29/32/29 
f 20/22/20 4/4/4 22/24/22 30/33/30 
s 1
f 31/34/31 32/35/31 33/36/31 34/37/31 
f 33/36/31 35/38/31 36/39/31 34/37/31 
f 36/39/31 37/40/31 38/41/31 34/37/31 
f 38/41/31 39/42/31 34/37/31 
f 40/43/31 31/34/31 34/37/31 
s off
f 22/43/32 21/34/32 31/34/32 40/43/32 
f 21/34/33 23/35/33 32/35/33 31/34/33 
f 23/35/34 24/36/34 33/36/34 32/35/34 
f 24/36/35 25/38/35 35/38/35 33/36/35 
f 25/38/36 26/39/36 36/39/36 35/38/36 
f 26/39/37 27/40/37 37/40/37 36/39/37 
f 27/40/38 28/41/38 38/41/38 37/40/38 
f 28/41/39 29/42/39 39/42/39 38/41/39 
f 29/42/40 30/37/40 34/37/40 39/42/40 
f 30/37/41 22/43/41 40/43/41 34/37/41 
s 1
f 41/34/42 42/35/43 43/36/42 44/37/42 
f 43/36/42 45/38/42 46/39/42 44/37/42 
f 46/39/42 47/40/44 48/41/45 44/37/42 
f 48/41/45 49/42/45 44/37/42 
f 50/43/46 41/34/42 44/37/42 
s off
f 51/43/47 52/34/47 41/34/47 50/43/47 
f 52/34/48 53/35/48 42/35/48 41/34/48 
f 53/35/49 54/36/49 43/36/49 42/35/49 
f 54/36/50 55/38/50 45/38/50 43/36/50 
f 55/38/51 56/39/51 46/39/51 45/38/51 
f 56/39/52 57/40/52 47/40/52 46/39/52 
f 57/40/53 58/41/53 48/41/53 47/40/53 
f 58/41/54 59/42/54 49/42/54 48/41/54 
f 59/42/55 60/37/55 44/37/55 49/42/55 
f 60/37/56 51/43/56 50/43/56 44/37/56 
s 1
f 61/34/57 62/35/58 63/36/59 64/37/60 
f 63/36/59 65/38/61 66/39/59 64/37/60 
f 66/39/59 67/40/59 68/41/59 64/37/60 
f 68/41/59 69/42/60 64/37/60 
f 70/43/60 61/34/57 64/37/60 
s off
f 71/43/62 72/34/62 61/34/62 70/43/62 
f 72/34/63 73/35/63 62/35/63 61/34/63 
f 73/35/64 74/36/64 63/36/64 62/35/64 
f 74/36/65 75/38/65 65/38/65 63/36/65 
f 75/38/66 76/39/66 66/39/66 65/38/66 
f 76/39/67 77/40/67 67/40/67 66/39/67 
f 77/40/68 78/41/68 68/41/68 67/40/68 
f 78/41/69 79/42/69 69/42/69 68/41/69 
f 79/42/70 80/37/70 64/37/70 69/42/70 
f 80/37/71 71/43/71 70/43/71 64/37/71 
s 1
f 81/34/72 82/35/73 83/36/74 84/37/74 
f 83/36/74 85/38/75 86/39/76 84/37/74 
f 86/39/76 87/40/77 88/41/74 84/37/74 
f 88/41/74 89/42/78 84/37/74 
f 90/43/79 81/34/72 84/37/74 
s off
f 91/43/80 92/34/80 81/34/80 90/43/80 
f 92/34/81 93/35/81 82/35/81 81/34/81 
f 93/35/82 94/36/82 83/36/82 82/35/82 
f 94/36/83 95/38/83 85/38/83 83/36/83 
f 95/38/84 96/39/84 86/39/84 85/38/84 
f 96/39/85 97/40/85 87/40/85 86/39/85 
f 97/40/86 98/41/86 88/41/86 87/40/86 
f 98/41/87 99/42/87 89/42/87 88/41/87 
f 99/42/88 100/37/88 84/37/88 89/42/88 
f 100/37/89 91/43/89 90/43/89 84/37/89 
s 1
f 101/34/90 102/35/91 103/36/92 104/37/90 
f 103/36/92 105/38/92 106/39/93 104/37/90 
f 106/39/93 107/40/94 108/41/93 104/37/90 
f 108/41/93 109/42/95 104/37/90 
f 110/43/96 101/34/90 104/37/90 
s off
f 111/43/97 112/34/97 101/34/97 110/43/97 
f 112/34/98 113/35/98 102/35/98 101/34/98 
f 113/35/99 114/36/99 103/36/99 102/35/99 
f 114/36/100 115/38/100 105/38/100 103/36/100 
f 115/38/101 116/39/101 106/39/101 105/38/101 
f 116/39/102 117/40/102 107/40/102 106/39/102 
f 117/40/103 118/41/103 108/41/103 107/40/103 
f 118/41/104 119/42/104 109/42/104 108/41/104 
f 119/42/105 120/37/105 104/37/105 109/42/105 
f 120/37/106 111/43/106 110/43/106 104/37/106 
# 85 polygons - 10 triangles

#
# object Cylinder002
#

v  -32.1739 32.3921 -18.6946
v  -32.1471 32.5015 -18.6395
v  -32.0719 34.0889 -21.9449
v  -32.0769 34.0683 -21.9552
v  -32.0276 32.5354 -18.6224
v  -32.0493 34.0953 -21.9416
v  -31.9349 32.4599 -18.6604
v  -32.0319 34.0811 -21.9488
v  -31.9618 32.3505 -18.7155
v  -32.0369 34.0605 -21.9592
v  -32.0813 32.3166 -18.7326
v  -32.0595 34.0541 -21.9624
v  -32.3151 32.7569 -18.9878
v  -32.3086 32.7122 -18.8708
v  -30.5770 35.7798 -17.8496
v  -30.5783 35.7882 -17.8717
v  -32.2086 32.6458 -18.8345
v  -30.5582 35.7673 -17.8428
v  -32.1151 32.6241 -18.9152
v  -30.5406 35.7632 -17.8580
v  -32.1216 32.6688 -19.0322
v  -30.5418 35.7716 -17.8800
v  -32.2216 32.7352 -19.0685
v  -30.5606 35.7841 -17.8869
v  -32.1339 34.7193 -20.1324
v  -32.1160 34.7250 -20.0511
v  -32.0660 37.1548 -20.2689
v  -32.0694 37.1537 -20.2843
v  -32.0365 34.7268 -20.0259
v  -32.0510 37.1551 -20.2642
v  -31.9749 34.7228 -20.0820
v  -32.0394 37.1544 -20.2747
v  -31.9928 34.7171 -20.1633
v  -32.0428 37.1533 -20.2901
v  -32.0723 34.7153 -20.1885
v  -32.0578 37.1529 -20.2948
v  -31.9180 31.7392 -14.6639
v  -31.9135 31.7076 -14.5812
v  -30.6906 33.8740 -13.8601
v  -30.6915 33.8799 -13.8757
v  -31.8429 31.6607 -14.5556
v  -30.6773 33.8651 -13.8553
v  -31.7768 31.6454 -14.6126
v  -30.6649 33.8622 -13.8660
v  -31.7814 31.6769 -14.6952
v  -30.6657 33.8682 -13.8816
v  -31.8520 31.7238 -14.7209
v  -30.6790 33.8770 -13.8864
v  -35.7747 33.3914 -15.7648
v  -35.7536 33.3767 -15.6981
v  -36.3541 35.2923 -15.1162
v  -36.3581 35.2950 -15.1287
v  -35.6870 33.3923 -15.6775
v  -36.3416 35.2952 -15.1123
v  -35.6415 33.4227 -15.7234
v  -36.3330 35.3009 -15.1209
v  -35.6626 33.4375 -15.7901
v  -36.3370 35.3037 -15.1335
v  -35.7292 33.4218 -15.8108
v  -36.3495 35.3008 -15.1374
v  -36.8093 34.6493 -15.1961
v  -36.7938 34.6781 -15.1550
v  -37.2351 35.9450 -15.9028
v  -37.2380 35.9396 -15.9105
v  -36.7449 34.6971 -15.1532
v  -37.2259 35.9486 -15.9024
v  -36.7114 34.6873 -15.1926
v  -37.2196 35.9467 -15.9098
v  -36.7269 34.6585 -15.2336
v  -37.2225 35.9413 -15.9176
v  -36.7759 34.6395 -15.2354
v  -37.2317 35.9378 -15.9179
# 72 vertices

vn -0.9526 -0.2580 -0.1610
vn -0.7386 0.6141 0.2781
vn -0.7387 0.6140 0.2781
vn -0.9526 -0.2581 -0.1610
vn 0.2140 0.8846 0.4143
vn 0.9526 0.2830 0.1114
vn 0.7386 -0.5891 -0.3277
vn -0.2140 -0.8596 -0.4639
vn -0.2139 -0.8597 -0.4639
vn -0.0000 0.4497 -0.8932
vn -0.0000 0.4498 -0.8931
vn -0.0001 0.4498 -0.8931
vn -0.0001 0.4497 -0.8932
vn -0.7844 0.5529 -0.2810
vn -0.7327 0.1967 0.6515
vn -0.7328 0.1968 0.6514
vn -0.7843 0.5529 -0.2812
vn 0.0642 -0.3328 0.9408
vn 0.0641 -0.3328 0.9408
vn 0.8095 -0.5062 0.2975
vn 0.7578 -0.1500 -0.6351
vn 0.7577 -0.1500 -0.6351
vn -0.0392 0.3796 -0.9243
vn -0.0391 0.3795 -0.9244
vn 0.4517 0.8415 0.2964
vn 0.4518 0.8414 0.2965
vn 0.4517 0.8414 0.2965
vn 0.4516 0.8415 0.2964
vn 0.4517 0.8415 0.2965
vn 0.4514 0.8417 0.2963
vn -0.9526 0.0063 -0.3041
vn -0.7386 0.0753 0.6699
vn -0.7388 0.0753 0.6697
vn -0.9526 0.0063 -0.3042
vn 0.2140 0.0967 0.9720
vn 0.9526 0.0491 0.3002
vn 0.9526 0.0491 0.3001
vn 0.7386 -0.0199 -0.6738
vn -0.2140 -0.0413 -0.9760
vn -0.0000 0.9975 -0.0706
vn 0.0001 0.9975 -0.0701
vn -0.0000 0.9975 -0.0705
vn -0.0001 0.9975 -0.0707
vn -0.0002 0.9975 -0.0705
vn -0.0001 0.9975 -0.0708
vn 0.0642 -0.3329 0.9408
vn 0.8094 -0.5062 0.2976
vn 0.4518 0.8413 0.2967
vn 0.4515 0.8416 0.2963
vn -0.9399 -0.1942 -0.2810
vn -0.6446 -0.4000 0.6515
vn -0.6447 -0.4000 0.6514
vn -0.9398 -0.1940 -0.2813
vn 0.2868 -0.1808 0.9408
vn 0.2867 -0.1808 0.9408
vn 0.9229 0.2444 0.2975
vn 0.6277 0.4503 -0.6351
vn 0.6276 0.4503 -0.6351
vn -0.3037 0.2310 -0.9243
vn -0.3035 0.2311 -0.9244
vn -0.3051 0.9050 0.2964
vn -0.3050 0.9051 0.2964
vn -0.3050 0.9050 0.2965
vn -0.3051 0.9050 0.2965
vn -0.3051 0.9049 0.2967
vn -0.3054 0.9049 0.2964
vn -0.9399 -0.3383 -0.0470
vn -0.6446 0.2094 0.7353
vn -0.6447 0.2094 0.7352
vn -0.9398 -0.3385 -0.0475
vn 0.2867 0.5708 0.7694
vn 0.2866 0.5708 0.7695
vn 0.9229 0.3844 0.0212
vn 0.9230 0.3843 0.0209
vn 0.6277 -0.1633 -0.7611
vn 0.6274 -0.1636 -0.7613
vn -0.3037 -0.5247 -0.7953
vn -0.3033 -0.5247 -0.7954
vn -0.3049 0.8306 -0.4661
vn -0.3048 0.8304 -0.4663
vn -0.3049 0.8307 -0.4659
vn -0.3050 0.8307 -0.4658
vn -0.3053 0.8309 -0.4652
vn -0.3053 0.8304 -0.4660
# 84 vertex normals

vt 0.7500 0.0000 1.0000
vt 0.9167 0.0000 1.0000
vt 0.9167 1.0000 1.0000
vt 0.7500 1.0000 1.0000
vt 1.0833 0.0000 1.0000
vt 1.0833 1.0000 1.0000
vt 0.0833 0.0000 1.0000
vt 0.2500 0.0000 1.0000
vt 0.2500 1.0000 1.0000
vt 0.0833 1.0000 1.0000
vt 0.4167 0.0000 1.0000
vt 0.4167 1.0000 1.0000
vt 0.5833 0.0000 1.0000
vt 0.5833 1.0000 1.0000
vt 0.0670 0.7500 0.2500
vt 0.0670 0.2500 0.2500
vt 0.5000 0.0000 0.2500
vt 0.9330 0.7500 0.2500
vt 0.9330 0.2500 0.2500
vt 0.5000 1.0000 0.2500
# 20 texture coords

g Cylinder002
usemtl wire_153228153
s 8
f 121/44/107 122/45/108 123/46/109 124/47/110 
f 122/45/108 125/48/111 126/49/111 123/46/109 
f 125/50/111 127/51/112 128/52/112 126/53/111 
f 127/51/112 129/54/113 130/55/113 128/52/112 
f 129/54/113 131/56/114 132/57/115 130/55/113 
f 131/56/114 121/44/107 124/47/110 132/57/115 
s 1
f 123/58/116 126/59/116 128/60/116 132/61/117 
f 128/60/116 130/62/118 132/61/117 
f 124/63/119 123/58/116 132/61/117 
s 8
f 133/44/120 134/45/121 135/46/122 136/47/123 
f 134/45/121 137/48/124 138/49/125 135/46/122 
f 137/50/124 139/51/126 140/52/126 138/53/125 
f 139/51/126 141/54/127 142/55/128 140/52/126 
f 141/54/127 143/56/129 144/57/130 142/55/128 
f 143/56/129 133/44/120 136/47/123 144/57/130 
s 1
f 135/58/131 138/59/132 140/60/133 144/61/134 
f 140/60/133 142/62/135 144/61/134 
f 136/63/136 135/58/131 144/61/134 
s 8
f 145/44/137 146/45/138 147/46/139 148/47/140 
f 146/45/138 149/48/141 150/49/141 147/46/139 
f 149/50/141 151/51/142 152/52/143 150/53/141 
f 151/51/142 153/54/144 154/55/144 152/52/143 
f 153/54/144 155/56/145 156/57/145 154/55/144 
f 155/56/145 145/44/137 148/47/140 156/57/145 
s 1
f 147/58/146 150/59/147 152/60/148 156/61/149 
f 152/60/148 154/62/150 156/61/149 
f 148/63/151 147/58/146 156/61/149 
s 8
f 157/44/120 158/45/121 159/46/122 160/47/123 
f 158/45/121 161/48/152 162/49/125 159/46/122 
f 161/50/152 163/51/126 164/52/153 162/53/125 
f 163/51/126 165/54/127 166/55/128 164/52/153 
f 165/54/127 167/56/129 168/57/130 166/55/128 
f 167/56/129 157/44/120 160/47/123 168/57/130 
s 1
f 159/58/131 162/59/154 164/60/133 168/61/131 
f 164/60/133 166/62/135 168/61/131 
f 160/63/155 159/58/131 168/61/131 
s 8
f 169/44/156 170/45/157 171/46/158 172/47/159 
f 170/45/157 173/48/160 174/49/161 171/46/158 
f 173/50/160 175/51/162 176/52/162 174/53/161 
f 175/51/162 177/54/163 178/55/164 176/52/162 
f 177/54/163 179/56/165 180/57/166 178/55/164 
f 179/56/165 169/44/156 172/47/159 180/57/166 
s 1
f 171/58/167 174/59/168 176/60/169 180/61/170 
f 176/60/169 178/62/171 180/61/170 
f 172/63/172 171/58/167 180/61/170 
s 8
f 181/44/173 182/45/174 183/46/175 184/47/176 
f 182/45/174 185/48/177 186/49/178 183/46/175 
f 185/50/177 187/51/179 188/52/180 186/53/178 
f 187/51/179 189/54/181 190/55/182 188/52/180 
f 189/54/181 191/56/183 192/57/184 190/55/182 
f 191/56/183 181/44/173 184/47/176 192/57/184 
s 1
f 183/58/185 186/59/186 188/60/187 192/61/188 
f 188/60/187 190/62/189 192/61/188 
f 184/63/190 183/58/185 192/61/188 
# 42 polygons - 12 triangles

